<?xml version="1.0" standalone="no"?>
<!DOCTYPE svg PUBLIC "-//W3C//DTD SVG 20010904//EN"
 "http://www.w3.org/TR/2001/REC-SVG-20010904/DTD/svg10.dtd">
<svg version="1.0" xmlns="http://www.w3.org/2000/svg"
 width="512.000000pt" height="512.000000pt" viewBox="0 0 512.000000 512.000000"
 preserveAspectRatio="xMidYMid meet">

<g transform="translate(0.000000,512.000000) scale(0.100000,-0.100000)"
fill="#000000" stroke="none">
<path d="M974 4260 c-139 -20 -289 -102 -383 -207 -62 -70 -126 -189 -146
-274 -13 -55 -15 -225 -15 -1219 0 -1288 -3 -1218 70 -1360 98 -187 269 -307
485 -340 46 -7 339 -10 850 -8 l780 3 45 25 c67 38 103 96 108 174 5 71 -14
120 -65 168 -63 60 -29 58 -892 58 l-789 0 -53 28 c-39 20 -62 41 -84 77 l-30
48 0 1127 0 1127 30 48 c22 36 45 57 84 77 l53 28 354 0 c386 0 397 -1 458
-58 15 -15 104 -140 196 -278 161 -241 171 -253 221 -278 l53 -26 896 0 896 0
53 -26 c68 -34 107 -93 116 -173 9 -77 22 -116 52 -152 89 -105 257 -96 337
19 59 83 47 240 -29 397 -25 52 -65 114 -95 147 -68 77 -182 151 -283 185
l-82 28 -853 3 -852 3 -131 196 c-149 223 -186 266 -278 327 -156 104 -224
116 -676 114 -192 0 -373 -4 -401 -8z"/>
<path d="M3455 2756 c-173 -40 -289 -102 -414 -220 -83 -80 -134 -149 -182
-249 -61 -128 -81 -220 -81 -367 0 -156 21 -244 94 -390 46 -93 64 -117 153
-205 105 -105 167 -148 285 -196 115 -47 215 -62 354 -56 138 6 208 23 319 74
l78 37 147 -146 c81 -80 163 -154 182 -164 21 -10 58 -17 91 -17 110 0 198 80
207 188 8 94 -10 122 -177 289 l-150 149 30 58 c16 32 41 98 56 146 23 78 26
104 26 233 0 129 -3 155 -27 235 -86 285 -306 504 -588 586 -94 27 -314 35
-403 15z m256 -420 c87 -19 141 -47 206 -108 90 -86 133 -185 133 -308 0 -124
-43 -222 -135 -309 -247 -234 -650 -95 -708 243 -37 219 111 434 333 482 73
16 93 16 171 0z"/>
</g>
</svg>
