<?xml version="1.0" standalone="no"?>
<!DOCTYPE svg PUBLIC "-//W3C//DTD SVG 20010904//EN"
 "http://www.w3.org/TR/2001/REC-SVG-20010904/DTD/svg10.dtd">
<svg version="1.0" xmlns="http://www.w3.org/2000/svg"
 width="512.000000pt" height="512.000000pt" viewBox="0 0 512.000000 512.000000"
 preserveAspectRatio="xMidYMid meet">

<g transform="translate(0.000000,512.000000) scale(0.100000,-0.100000)"
fill="#000000" stroke="none">
<path d="M2409 4716 c-81 -17 -191 -62 -252 -103 -25 -17 -374 -291 -777 -609
-532 -420 -747 -595 -782 -639 -27 -33 -69 -100 -93 -150 -78 -162 -75 -114
-75 -1188 0 -1080 -4 -1024 82 -1197 34 -69 60 -103 138 -180 77 -78 111 -104
180 -138 47 -23 121 -51 164 -62 77 -20 116 -20 1566 -20 1450 0 1489 0 1566
20 43 11 117 39 164 62 69 34 103 60 180 138 78 77 104 111 138 180 86 173 82
117 82 1197 0 1064 2 1024 -70 1178 -44 95 -113 189 -178 243 -196 164 -1469
1160 -1517 1187 -107 60 -205 87 -335 91 -74 2 -139 -1 -181 -10z m313 -225
c69 -24 114 -47 158 -81 239 -184 1422 -1123 1448 -1148 48 -49 97 -129 124
-203 l23 -64 3 -937 c3 -1036 4 -1009 -60 -1132 -41 -78 -146 -183 -224 -224
-124 -65 -42 -62 -1634 -62 -1592 0 -1510 -3 -1634 62 -78 41 -183 146 -224
224 -64 123 -63 96 -60 1137 l3 942 24 60 c30 74 78 152 123 196 46 46 1430
1138 1492 1177 49 31 144 67 201 76 55 8 182 -4 237 -23z"/>
<path d="M1983 1375 c-33 -14 -63 -59 -63 -95 0 -37 30 -81 65 -96 51 -21
1099 -21 1150 0 35 15 65 59 65 96 0 37 -30 81 -65 96 -50 21 -1104 20 -1152
-1z"/>
</g>
</svg>
