<?xml version="1.0" encoding="utf-8"?>
<!-- Svg Vector Icons : http://www.onlinewebfonts.com/icon -->
<!DOCTYPE svg PUBLIC "-//W3C//DTD SVG 1.1//EN" "http://www.w3.org/Graphics/SVG/1.1/DTD/svg11.dtd">
<svg version="1.1" xmlns="http://www.w3.org/2000/svg" xmlns:xlink="http://www.w3.org/1999/xlink" x="0px" y="0px" viewBox="0 0 256 256" enable-background="new 0 0 256 256" xml:space="preserve">
<metadata> Svg Vector Icons : http://www.onlinewebfonts.com/icon </metadata>
<g><g><g><g><path fill="#000000" d="M128,10C62.9,10,10,62.9,10,128c0,65.1,52.9,118,118,118c65.1,0,118-52.9,118-118C246,62.9,193.1,10,128,10z M128,236.3c-59.7,0-108.3-48.6-108.3-108.3C19.7,68.3,68.3,19.7,128,19.7c59.7,0,108.3,48.6,108.3,108.3C236.3,187.7,187.7,236.3,128,236.3z"/><path fill="#000000" d="M128,58.8l-3.9,5.2c-3.9,5.3-38.4,52.3-38.4,74s16.4,39.6,37.5,42v16.7h9.7v-16.7c21.1-2.4,37.5-20.3,37.5-42c0-21.7-34.5-68.7-38.5-74L128,58.8z M123.2,170.3c-12.7-1.9-23-11.1-26.5-23.1l26.5,19.8V170.3L123.2,170.3z M123.2,154.9l-27.4-20.5c0.4-2.1,1.1-4.5,2-7l25.4,19V154.9L123.2,154.9z M123.2,134.2l-21.5-16c1-2,2-4.1,3.2-6.2l18.3,13.7V134.2z M123.2,113.6l-13.5-10.1c1.2-2,2.3-3.9,3.5-5.9l10,7.5L123.2,113.6L123.2,113.6z M123.2,92.9l-4.8-3.6c1.6-2.5,3.3-4.9,4.8-7.2V92.9z M132.8,82.2c1.5,2.3,3.2,4.7,4.8,7.2l-4.8,3.6V82.2z M132.8,105l10-7.5c1.2,2,2.4,3.9,3.5,5.9l-13.5,10.1L132.8,105L132.8,105z M132.8,125.7l18.3-13.7c1.1,2.1,2.2,4.2,3.2,6.2l-21.5,16V125.7z M132.8,146.3l25.4-19c0.9,2.6,1.6,4.9,2,7l-27.4,20.5V146.3L132.8,146.3z M132.8,167l26.5-19.8c-3.5,12.1-13.8,21.2-26.5,23.1V167z"/></g></g><g></g><g></g><g></g><g></g><g></g><g></g><g></g><g></g><g></g><g></g><g></g><g></g><g></g><g></g><g></g></g></g>
</svg>