<?xml version="1.0" standalone="no"?>
<!DOCTYPE svg PUBLIC "-//W3C//DTD SVG 20010904//EN"
 "http://www.w3.org/TR/2001/REC-SVG-20010904/DTD/svg10.dtd">
<svg version="1.0" xmlns="http://www.w3.org/2000/svg"
 width="512.000000pt" height="512.000000pt" viewBox="0 0 512.000000 512.000000"
 preserveAspectRatio="xMidYMid meet">

<g transform="translate(0.000000,512.000000) scale(0.100000,-0.100000)"
fill="#000000" stroke="none">
<path d="M1200 4676 c-526 -111 -859 -617 -751 -1141 82 -398 417 -704 826
-754 125 -15 852 -15 913 1 64 16 134 86 150 150 16 61 16 788 1 913 -48 391
-329 715 -707 817 -99 26 -336 34 -432 14z m325 -428 c162 -42 299 -169 364
-338 25 -64 25 -71 29 -388 l3 -323 -323 3 c-317 4 -324 4 -388 29 -135 52
-240 144 -298 263 -43 87 -55 139 -55 236 -1 148 51 275 155 378 82 83 193
138 313 155 40 6 151 -2 200 -15z"/>
<path d="M3590 4684 c-84 -16 -193 -50 -256 -78 -303 -140 -512 -428 -553
-761 -15 -125 -15 -852 1 -913 16 -64 86 -134 150 -150 61 -16 788 -16 913 -1
393 48 712 325 817 710 20 72 23 107 22 249 0 150 -3 173 -28 255 -103 338
-350 579 -686 670 -64 17 -322 30 -380 19z m290 -440 c252 -71 416 -322 380
-583 -12 -92 -68 -215 -129 -283 -52 -58 -137 -115 -221 -147 -64 -25 -71 -25
-388 -29 l-323 -3 3 323 c4 303 5 327 26 382 103 276 374 418 652 340z"/>
<path d="M1265 2339 c-397 -49 -735 -361 -816 -754 -102 -496 184 -972 676
-1122 83 -25 103 -27 260 -27 143 0 182 4 247 22 381 105 659 427 707 817 15
125 15 852 -1 913 -16 64 -86 134 -150 150 -55 14 -812 15 -923 1z m653 -741
c-4 -317 -4 -324 -29 -388 -52 -135 -144 -240 -263 -298 -89 -43 -140 -55
-241 -55 -297 1 -530 236 -528 533 0 97 13 150 55 235 72 147 210 252 373 285
22 4 174 8 338 9 l298 1 -3 -322z"/>
<path d="M2921 2335 c-24 -8 -61 -31 -83 -52 -65 -64 -68 -83 -68 -527 0 -223
5 -430 11 -481 41 -332 250 -621 553 -761 209 -96 483 -111 705 -38 294 98
523 338 617 649 25 82 28 105 28 255 1 142 -2 177 -22 249 -105 385 -424 662
-817 710 -137 17 -868 13 -924 -4z m993 -447 c132 -51 236 -143 294 -262 43
-87 55 -139 55 -236 1 -242 -152 -446 -388 -516 -70 -21 -208 -23 -275 -4
-170 47 -304 169 -368 336 -26 69 -26 71 -30 392 l-3 323 323 -3 c321 -4 323
-4 392 -30z"/>
</g>
</svg>
